<svg width="12" height="13" viewBox="0 0 12 13" fill="none" xmlns="http://www.w3.org/2000/svg">
<path d="M8.42505 1.95C8.55005 2.075 8.61255 2.223 8.61255 2.394C8.61255 2.565 8.55005 2.71283 8.42505 2.8375L4.76255 6.5L8.43755 10.175C8.55422 10.2917 8.61255 10.4375 8.61255 10.6125C8.61255 10.7875 8.55005 10.9375 8.42505 11.0625C8.30005 11.1875 8.15205 11.25 7.98105 11.25C7.81005 11.25 7.66222 11.1875 7.53755 11.0625L3.33755 6.85C3.28755 6.8 3.25205 6.74583 3.23105 6.6875C3.21005 6.62917 3.19972 6.56667 3.20005 6.5C3.20005 6.43333 3.21055 6.37083 3.23155 6.3125C3.25255 6.25417 3.28788 6.2 3.33755 6.15L7.55005 1.9375C7.66672 1.82083 7.81055 1.7625 7.98155 1.7625C8.15255 1.7625 8.30038 1.825 8.42505 1.95Z" fill="#9A9A9A"/>
</svg>
