<svg width="20" height="17" viewBox="0 0 20 17" fill="none" xmlns="http://www.w3.org/2000/svg">
<path d="M19.6645 8.5C19.6645 8.64389 19.5991 8.78189 19.4827 8.88364C19.3664 8.98539 19.2085 9.04255 19.044 9.04255H10.5642V16.4574C10.5642 16.6013 10.4988 16.7393 10.3824 16.8411C10.2661 16.9428 10.1082 17 9.94368 17C9.77912 17 9.6213 16.9428 9.50494 16.8411C9.38858 16.7393 9.3232 16.6013 9.3232 16.4574V9.04255H0.843376C0.678815 9.04255 0.520995 8.98539 0.404633 8.88364C0.288272 8.78189 0.2229 8.64389 0.2229 8.5C0.2229 8.35611 0.288272 8.21811 0.404633 8.11636C0.520995 8.01461 0.678815 7.95745 0.843376 7.95745H9.3232V0.542553C9.3232 0.398659 9.38858 0.260659 9.50494 0.15891C9.6213 0.0571616 9.77912 0 9.94368 0C10.1082 0 10.2661 0.0571616 10.3824 0.15891C10.4988 0.260659 10.5642 0.398659 10.5642 0.542553V7.95745H19.044C19.2085 7.95745 19.3664 8.01461 19.4827 8.11636C19.5991 8.21811 19.6645 8.35611 19.6645 8.5Z" fill="#1A1A1A"/>
</svg>
