<svg width="23" height="20" viewBox="0 0 23 20" fill="none" xmlns="http://www.w3.org/2000/svg">
<path fill-rule="evenodd" clip-rule="evenodd" d="M10.0763 1.875H13.1185C13.3138 1.875 13.4839 1.875 13.6442 1.89833C13.9562 1.94462 14.2523 2.05788 14.5086 2.22907C14.7649 2.40025 14.9744 2.6246 15.1203 2.88417C15.1959 3.0175 15.249 3.16667 15.3111 3.3375L15.411 3.61667C15.4799 3.84347 15.6299 4.04194 15.8363 4.17967C16.0428 4.3174 16.2936 4.38626 16.5478 4.375H19.248C19.427 4.375 19.5987 4.44085 19.7253 4.55806C19.8519 4.67527 19.9231 4.83424 19.9231 5C19.9231 5.16576 19.8519 5.32473 19.7253 5.44194C19.5987 5.55915 19.427 5.625 19.248 5.625H3.94678C3.76775 5.625 3.59604 5.55915 3.46945 5.44194C3.34285 5.32473 3.27173 5.16576 3.27173 5C3.27173 4.83424 3.34285 4.67527 3.46945 4.55806C3.59604 4.44085 3.76775 4.375 3.94678 4.375H6.72801C6.96842 4.36966 7.20066 4.29314 7.39066 4.15667C7.58067 4.02019 7.71845 3.83094 7.78379 3.61667L7.8846 3.3375C7.9458 3.16667 7.99891 3.0175 8.07361 2.88417C8.2196 2.6245 8.42922 2.40009 8.68571 2.2289C8.94219 2.05771 9.23841 1.9445 9.55063 1.89833C9.71084 1.875 9.88096 1.875 10.0754 1.875H10.0763ZM8.90438 4.375C8.96758 4.2604 9.02027 4.1411 9.06189 4.01833L9.1519 3.76833C9.23381 3.54083 9.25271 3.495 9.27161 3.46167C9.3202 3.37501 9.39004 3.30009 9.47554 3.24293C9.56104 3.18577 9.65982 3.14795 9.76395 3.1325C9.88128 3.12332 9.99911 3.12082 10.1168 3.125H13.078C13.3372 3.125 13.3912 3.12667 13.4308 3.13333C13.5349 3.14869 13.6336 3.18639 13.7191 3.2434C13.8046 3.30041 13.8745 3.37516 13.9232 3.46167C13.9421 3.495 13.961 3.54083 14.0429 3.76917L14.1329 4.01917L14.168 4.1125C14.2031 4.20417 14.2445 4.29083 14.2904 4.375H8.90438Z" fill="#383838"/>
<path d="M6.1204 7.04173C6.10846 6.8763 6.02603 6.72203 5.89125 6.61287C5.75647 6.50371 5.58036 6.44859 5.40169 6.45964C5.22301 6.47069 5.05639 6.54701 4.93849 6.6718C4.82058 6.79659 4.76105 6.95963 4.77299 7.12506L5.19062 12.9184C5.26713 13.9867 5.32923 14.8501 5.47504 15.5284C5.62716 16.2326 5.88458 16.8209 6.41742 17.2817C6.94936 17.7434 7.60101 17.9426 8.37058 18.0351C9.11044 18.1251 10.0447 18.1251 11.2022 18.1251H11.9934C13.15 18.1251 14.0851 18.1251 14.825 18.0351C15.5937 17.9426 16.2453 17.7434 16.7782 17.2817C17.3101 16.8209 17.5675 16.2317 17.7196 15.5284C17.8654 14.8509 17.9266 13.9867 18.004 12.9184L18.4217 7.12506C18.4336 6.95963 18.3741 6.79659 18.2562 6.6718C18.1383 6.54701 17.9717 6.47069 17.793 6.45964C17.6143 6.44859 17.4382 6.50371 17.3034 6.61287C17.1686 6.72203 17.0862 6.8763 17.0743 7.04173L16.6602 12.7917C16.5792 13.9142 16.5216 14.6959 16.3956 15.2834C16.2723 15.8542 16.1013 16.1559 15.8556 16.3692C15.609 16.5826 15.2723 16.7209 14.6495 16.7959C14.0077 16.8734 13.1617 16.8751 11.9457 16.8751H11.249C10.0339 16.8751 9.18784 16.8734 8.54519 16.7959C7.92234 16.7209 7.58571 16.5826 7.33909 16.3692C7.09337 16.1559 6.92236 15.8542 6.79905 15.2842C6.67304 14.6959 6.61543 13.9142 6.53443 12.7909L6.1204 7.04173Z" fill="#383838"/>
<path d="M9.27968 8.54511C9.45775 8.52859 9.63562 8.57821 9.77418 8.68306C9.91275 8.78792 10.0007 8.93942 10.0186 9.10428L10.4687 13.2709C10.4819 13.4335 10.4259 13.5944 10.3128 13.7193C10.1996 13.8442 10.0382 13.9233 9.86304 13.9396C9.68784 13.9559 9.51269 13.9082 9.37496 13.8066C9.23722 13.7051 9.1478 13.5577 9.12577 13.3959L8.67573 9.22928C8.65788 9.06441 8.71148 8.89973 8.82473 8.77144C8.93798 8.64314 9.10162 8.56174 9.27968 8.54511ZM13.915 8.54511C14.0929 8.56174 14.2564 8.64303 14.3697 8.77114C14.4829 8.89925 14.5366 9.06371 14.519 9.22844L14.069 13.3951C14.0466 13.5565 13.9572 13.7036 13.8196 13.8049C13.682 13.9062 13.5072 13.9538 13.3323 13.9377C13.1574 13.9215 12.9962 13.8428 12.883 13.7183C12.7697 13.5938 12.7134 13.4333 12.7261 13.2709L13.1761 9.10428C13.1941 8.93958 13.2819 8.78821 13.4202 8.68338C13.5586 8.57855 13.7371 8.52882 13.915 8.54511Z" fill="#383838"/>
</svg>
